<svg version="1.1" xmlns="http://www.w3.org/2000/svg" xmlns:xlink="http://www.w3.org/1999/xlink" width="64" height="64" viewBox="0,0,256,256"><g fill="#ffb02e" fill-rule="evenodd" stroke="none" stroke-width="1" stroke-linecap="butt" stroke-linejoin="miter" stroke-miterlimit="10" stroke-dasharray="" stroke-dashoffset="0" font-family="none" font-weight="none" font-size="none" text-anchor="none" style="mix-blend-mode: normal"><g transform="scale(4,4)"><path d="M11,7h42v40.9142l-9.0858,9.0858h-32.9142zM13,9v46h29.5v-8.5h8.5v-37.5zM49.5858,48.5h-5.0858v5.0858z"></path><path d="M15,12h7v7h-7zM17,14v3h3v-3z"></path><path d="M15,22h7v7h-7zM17,24v3h3v-3z"></path><path d="M15,32h7v7h-7zM17,34v3h3v-3z"></path><path d="M42,12h7v7h-7zM44,14v3h3v-3z"></path><path d="M42,22h7v7h-7zM44,24v3h3v-3z"></path><path d="M42,32h7v7h-7zM44,34v3h3v-3z"></path><path d="M15,42h7v7h-7zM17,44v3h3v-3z"></path></g></g></svg>