<svg width="1007" height="231" viewBox="0 0 1007 231" fill="none" xmlns="http://www.w3.org/2000/svg">
<path d="M533.07 51.3655C580.091 47.7878 584.684 77.7967 611.267 79.4756C628.651 80.5734 646.407 60.5547 684.354 55.9653C739.505 49.295 773.555 46.7769 827.971 60.4736C908.297 80.6917 1006.85 230.662 1006.85 230.662H448.291L0 229.237V46.6593C8.10762 45.3436 40.0407 41.0348 47.7143 34.325C57.3064 25.9377 62.4451 34.325 66.2134 34.325C69.9817 34.325 86.5329 10.1115 92.6992 2.21762C98.8655 -5.67631 108.458 13.5651 115.309 18.9922C122.161 24.4193 139.502 16.7908 151.279 13.5651C168.15 8.94471 188.897 21.7299 195.749 26.6636C215.17 38.1683 230.092 24.3894 244.814 28.8979C267.557 35.8633 263.226 45.8143 292.345 47.7878C321.464 49.7613 367.589 29.2112 378.209 24.2775C412.452 8.36893 448.972 34.325 469.184 42.7123C489.395 51.0996 519.812 52.3742 533.07 51.3655Z" fill="url(#paint0_radial_72_13850)"/>
<defs>
<radialGradient id="paint0_radial_72_13850" cx="0" cy="0" r="1" gradientUnits="userSpaceOnUse" gradientTransform="translate(115.507 -62.0109) rotate(20.7413) scale(695.841 211.971)">
<stop stop-color="#E754A6"/>
<stop offset="0.19483" stop-color="#DF59C3"/>
<stop offset="0.581608" stop-color="#5673ED"/>
<stop offset="1" stop-color="#2449DA"/>
</radialGradient>
</defs>
</svg>
