<svg width="978" height="440" viewBox="0 0 978 440" fill="none" xmlns="http://www.w3.org/2000/svg">
<path d="M859.58 411.211C736.489 448.957 678.892 407.823 626.296 380.781C548.078 340.567 514.014 325.835 401.085 380.781C288.155 435.728 166.713 465.391 69.0705 411.211C-2.05288 371.746 5.27689 244.075 5.27689 244.075C-10.4988 194.943 13.1708 118.723 137.394 106.3C263.312 93.7084 307.791 162.766 417.471 162.766C549.05 162.766 617.038 95.3118 735.932 38.5422C861.284 -21.3106 977.592 8.05151 977.592 8.05151L977.592 302.798C977.592 302.798 982.897 373.396 859.58 411.211Z" fill="url(#paint0_radial_72_13852)"/>
<defs>
<radialGradient id="paint0_radial_72_13852" cx="0" cy="0" r="1" gradientUnits="userSpaceOnUse" gradientTransform="translate(959.065 138.825) rotate(178.905) scale(937.867 387.522)">
<stop offset="0.222547" stop-color="#4D2372"/>
<stop offset="0.581608" stop-color="#5673ED"/>
<stop offset="1" stop-color="#57BEF8"/>
</radialGradient>
</defs>
</svg>
