<svg width="1016" height="253" viewBox="0 0 1016 253" fill="none" xmlns="http://www.w3.org/2000/svg">
<path d="M187.593 43.299C162.294 59.7435 0.0220947 67.6724 0.0220947 67.6724V237.704H246.88L1015.56 252.426V47.0625C1003.47 45.0997 838.419 38.6713 826.971 28.6608C812.66 16.1476 804.994 28.6608 799.372 28.6608C793.75 28.6608 786.595 15.4116 777.395 3.63448C768.195 -8.14261 753.885 20.564 743.663 28.6608C733.441 36.7576 700.731 35.2854 689.998 20.564C679.265 5.84268 677.221 13.2033 666.999 20.564C656.777 27.9248 637.658 21.9419 620.489 28.6608C573.469 47.0625 554.558 38.2297 511.115 41.174C467.672 44.1182 418.096 21.5862 402.252 14.2255C386.409 6.86485 377.209 -7.40657 347.054 5.10659C316.9 17.6198 303.611 37.7665 255.058 33.0772C228.534 30.5155 212.892 26.8545 187.593 43.299Z" fill="url(#paint0_radial_72_13847)"/>
<defs>
<radialGradient id="paint0_radial_72_13847" cx="0" cy="0" r="1" gradientUnits="userSpaceOnUse" gradientTransform="translate(196.832 167) rotate(0.99053) scale(646.215 280.121)">
<stop stop-color="#E754A6"/>
<stop offset="0.19483" stop-color="#DF59C3"/>
<stop offset="0.581608" stop-color="#5E308A"/>
<stop offset="1" stop-color="#4F297E"/>
</radialGradient>
</defs>
</svg>
