<svg width="767" height="263" viewBox="0 0 767 263" fill="none" xmlns="http://www.w3.org/2000/svg">
<path d="M623.281 60.4549C648.631 43.9616 756.505 38.2499 766.387 45.1221V262.204H0.769043C23.8382 237.515 78.9663 159.645 129.053 151.297C156.652 146.697 159.719 102.069 187.318 89.9073C230.761 70.7633 246.605 81.8079 267.56 60.4549C288.515 39.102 301.292 50.1466 318.669 43.5198C336.046 36.893 339.624 20.6942 347.801 7.44061C355.979 -5.81292 361.09 1.55013 366.201 7.44061C371.312 13.3311 370.289 -0.658795 374.889 7.44061C379.489 15.54 418.843 40.5746 427.021 43.5198C435.198 46.465 443.376 60.4549 459.22 50.1466C475.064 39.8382 466.886 47.2013 512.884 76.6537C558.883 106.106 591.593 81.0716 623.281 60.4549Z" fill="url(#paint0_radial_72_13848)"/>
<defs>
<radialGradient id="paint0_radial_72_13848" cx="0" cy="0" r="1" gradientUnits="userSpaceOnUse" gradientTransform="translate(178.067 321.971) rotate(-16.6402) scale(478.213 274.672)">
<stop stop-color="#E754A6"/>
<stop offset="0.538286" stop-color="#E0848D"/>
<stop offset="1" stop-color="#7B4AB8"/>
</radialGradient>
</defs>
</svg>
