<svg width="552" height="424" viewBox="0 0 552 424" fill="none" xmlns="http://www.w3.org/2000/svg">
<g filter="url(#filter0_f_72_13853)">
<ellipse cx="275.945" cy="402.735" rx="262.306" ry="7.59828" fill="black" fill-opacity="0.4"/>
</g>
<path d="M108.495 396.752L54.6768 158.416L8.99997 396.752H108.495Z" fill="#201245"/>
<path d="M108.495 396.752L54.6768 158.416L8.99997 396.752H108.495Z" fill="url(#paint0_linear_72_13853)"/>
<path d="M18.047 396.746L54.6801 158.41L9.00195 396.746H18.047Z" fill="white" fill-opacity="0.04"/>
<path d="M94.9303 396.746L54.6802 158.41L108.272 396.746H94.9303Z" fill="black" fill-opacity="0.04"/>
<path fill-rule="evenodd" clip-rule="evenodd" d="M55.3528 207.932C54.9779 207.932 54.6743 208.236 54.6743 208.611V234.41L47.3004 224.707C47.0733 224.409 46.6483 224.351 46.35 224.578C46.0516 224.804 45.9935 225.23 46.2206 225.528L54.6743 236.653V307.19L42.5785 288.74C42.3739 288.426 41.9528 288.338 41.64 288.544C41.3258 288.749 41.2387 289.17 41.4446 289.483L54.6743 309.665V375.634L42.601 354.352C42.4162 354.027 42.003 353.913 41.6769 354.097C41.3509 354.282 41.236 354.697 41.4208 355.023L54.6743 378.384V403.146C54.6743 403.521 54.9779 403.824 55.3528 403.824C55.7277 403.824 56.0313 403.521 56.0313 403.146V348.653L75.4851 330.765C75.7609 330.512 75.7781 330.083 75.5247 329.807C75.2712 329.531 74.8422 329.513 74.5663 329.766L56.0313 346.811V273.968L68.098 258.55C68.329 258.255 68.2762 257.829 67.9818 257.598C67.6861 257.367 67.2597 257.419 67.03 257.714L56.0313 271.768V208.611C56.0313 208.236 55.7277 207.932 55.3528 207.932Z" fill="black"/>
<path d="M165.106 396.231L104.175 126.391L52.4597 396.231H165.106Z" fill="#201245"/>
<path d="M62.6955 396.229L104.169 126.39L52.4544 396.229H62.6955Z" fill="white" fill-opacity="0.04"/>
<path d="M149.74 396.229L104.169 126.39L164.846 396.229H149.74Z" fill="black" fill-opacity="0.04"/>
<path fill-rule="evenodd" clip-rule="evenodd" d="M104.94 182.456C104.515 182.456 104.171 182.799 104.171 183.225V212.434L95.8219 201.448C95.5658 201.11 95.084 201.045 94.746 201.301C94.4081 201.559 94.3421 202.041 94.5995 202.377L104.171 214.972V294.835L90.477 273.945C90.2446 273.589 89.7681 273.49 89.413 273.723C89.0592 273.955 88.9589 274.432 89.1925 274.787L104.171 297.636V372.325L90.502 348.231C90.2935 347.862 89.8249 347.732 89.4552 347.942C89.0869 348.151 88.9576 348.621 89.1662 348.989L104.171 375.438V403.145C104.171 403.568 104.515 403.913 104.94 403.913C105.363 403.913 105.708 403.568 105.708 403.145V341.779L127.733 321.526C128.045 321.239 128.066 320.753 127.778 320.44C127.492 320.128 127.004 320.109 126.693 320.395L105.708 339.692V257.221L119.369 239.764C119.631 239.43 119.571 238.948 119.237 238.687C118.903 238.426 118.421 238.484 118.159 238.818L105.708 254.728V183.225C105.708 182.799 105.363 182.456 104.94 182.456Z" fill="black"/>
<path d="M234.297 395.716L166.25 94.3719L108.497 395.716H234.297Z" fill="#251449"/>
<path d="M119.934 395.714L166.25 94.3694L108.497 395.714H119.934Z" fill="white" fill-opacity="0.04"/>
<path d="M217.141 395.714L166.25 94.3694L234.01 395.714H217.141Z" fill="black" fill-opacity="0.04"/>
<path fill-rule="evenodd" clip-rule="evenodd" d="M167.106 156.982C166.632 156.982 166.248 157.366 166.248 157.84V190.46L156.924 178.191C156.638 177.815 156.099 177.741 155.722 178.028C155.345 178.314 155.271 178.853 155.558 179.23L166.248 193.294V282.48L150.955 259.152C150.695 258.756 150.163 258.645 149.767 258.904C149.371 259.164 149.26 259.696 149.52 260.092L166.248 285.609V369.019L150.983 342.112C150.749 341.7 150.226 341.555 149.814 341.788C149.402 342.022 149.257 342.546 149.491 342.958L166.248 372.496V404.004C166.248 404.478 166.632 404.862 167.106 404.862C167.58 404.862 167.964 404.478 167.964 404.004V334.906L192.559 312.289C192.909 311.968 192.932 311.426 192.611 311.076C192.29 310.727 191.747 310.705 191.399 311.026L167.964 332.576V240.476L183.22 220.981C183.512 220.609 183.446 220.069 183.073 219.777C182.7 219.486 182.161 219.552 181.869 219.924L167.964 237.693V157.84C167.964 157.366 167.58 156.982 167.106 156.982Z" fill="black"/>
<path d="M200.564 397.891L254.383 159.555L300.06 397.891H200.564Z" fill="#201245"/>
<path opacity="0.4" d="M200.564 397.891L254.383 159.555L300.06 397.891H200.564Z" fill="white"/>
<path d="M291.011 397.891L254.379 159.555L300.056 397.891H291.011Z" fill="white" fill-opacity="0.04"/>
<path d="M214.127 397.891L254.379 159.555L200.787 397.891H214.127Z" fill="black" fill-opacity="0.04"/>
<path fill-rule="evenodd" clip-rule="evenodd" d="M253.706 209.077C254.081 209.077 254.385 209.38 254.385 209.755V235.554L261.758 225.852C261.985 225.554 262.41 225.496 262.709 225.723C263.007 225.95 263.065 226.375 262.838 226.673L254.385 237.797V308.335L266.48 289.884C266.685 289.57 267.106 289.483 267.419 289.689C267.732 289.894 267.82 290.315 267.614 290.628L254.385 310.81V376.779L266.457 355.498C266.641 355.172 267.056 355.057 267.382 355.242C267.708 355.427 267.821 355.841 267.637 356.167L254.385 379.529V404.29C254.385 404.665 254.081 404.969 253.706 404.969C253.331 404.969 253.027 404.665 253.027 404.29V349.798L233.574 331.91C233.298 331.656 233.279 331.227 233.533 330.952C233.788 330.676 234.217 330.658 234.492 330.912L253.027 347.955V275.113L240.961 259.694C240.73 259.4 240.781 258.974 241.077 258.743C241.371 258.512 241.798 258.563 242.029 258.859L253.027 272.912V209.755C253.027 209.38 253.331 209.077 253.706 209.077Z" fill="black"/>
<path d="M143.952 397.375L204.884 127.534L256.6 397.375H143.952Z" fill="#201245"/>
<path d="M246.362 397.375L204.888 127.534L256.603 397.375H246.362Z" fill="white" fill-opacity="0.04"/>
<path d="M159.317 397.375L204.889 127.534L144.213 397.375H159.317Z" fill="black" fill-opacity="0.04"/>
<path fill-rule="evenodd" clip-rule="evenodd" d="M204.119 183.601C204.544 183.601 204.887 183.944 204.887 184.369V213.58L213.236 202.593C213.492 202.256 213.974 202.19 214.312 202.446C214.65 202.704 214.716 203.185 214.459 203.523L204.887 216.118V295.979L218.581 275.089C218.815 274.734 219.29 274.635 219.645 274.868C220 275.101 220.099 275.576 219.867 275.931L204.887 298.782V373.47L218.556 349.376C218.766 349.008 219.235 348.878 219.603 349.087C219.973 349.297 220.102 349.765 219.892 350.134L204.887 376.584V404.289C204.887 404.714 204.544 405.057 204.119 405.057C203.695 405.057 203.352 404.714 203.352 404.289V342.923L181.326 322.671C181.014 322.383 180.994 321.897 181.28 321.586C181.568 321.273 182.054 321.253 182.365 321.54L203.352 340.836V258.367L189.689 240.91C189.428 240.576 189.487 240.093 189.821 239.832C190.155 239.57 190.638 239.628 190.9 239.962L203.352 255.874V184.369C203.352 183.944 203.695 183.601 204.119 183.601Z" fill="black"/>
<path d="M74.7623 396.857L142.808 95.5114L200.56 396.857H74.7623Z" fill="url(#paint1_linear_72_13853)"/>
<path d="M189.126 396.861L142.809 95.5155L200.561 396.861H189.126Z" fill="white" fill-opacity="0.04"/>
<path d="M91.9174 396.861L142.808 95.5155L75.0483 396.861H91.9174Z" fill="white" fill-opacity="0.04"/>
<path fill-rule="evenodd" clip-rule="evenodd" d="M141.948 158.126C142.422 158.126 142.806 158.511 142.806 158.983V191.605L152.13 179.336C152.416 178.958 152.955 178.886 153.331 179.172C153.708 179.459 153.782 179.997 153.496 180.374L142.806 194.439V283.625L158.099 260.295C158.359 259.899 158.891 259.789 159.287 260.049C159.683 260.309 159.794 260.841 159.534 261.237L142.806 286.753V370.163L158.07 343.256C158.305 342.843 158.828 342.699 159.239 342.933C159.651 343.166 159.797 343.69 159.563 344.102L142.806 373.639V405.149C142.806 405.623 142.422 406.007 141.948 406.007C141.474 406.007 141.09 405.623 141.09 405.149V336.05L116.493 313.432C116.145 313.111 116.122 312.569 116.443 312.22C116.764 311.872 117.306 311.849 117.655 312.17L141.09 333.72V241.62L125.834 222.126C125.542 221.752 125.607 221.214 125.98 220.922C126.354 220.63 126.893 220.695 127.184 221.068L141.09 238.837V158.983C141.09 158.511 141.474 158.126 141.948 158.126Z" fill="black"/>
<path d="M266.208 395.262L195.859 83.7162L136.151 395.262H266.208Z" fill="#201245"/>
<path d="M266.208 395.262L195.859 83.7162L136.151 395.262H266.208Z" fill="#251449"/>
<path d="M147.975 395.262L195.859 83.7162L136.151 395.262H147.975Z" fill="white" fill-opacity="0.04"/>
<path d="M248.473 395.262L195.859 83.7162L265.912 395.262H248.473Z" fill="black" fill-opacity="0.04"/>
<path fill-rule="evenodd" clip-rule="evenodd" d="M196.749 148.451C196.259 148.451 195.862 148.847 195.862 149.336V183.061L186.223 170.378C185.927 169.987 185.37 169.912 184.981 170.208C184.591 170.505 184.515 171.061 184.812 171.451L195.862 185.992V278.197L180.051 254.078C179.784 253.669 179.233 253.554 178.824 253.823C178.415 254.091 178.3 254.64 178.568 255.051L195.862 281.431V367.664L180.081 339.847C179.839 339.42 179.298 339.271 178.873 339.513C178.446 339.754 178.297 340.295 178.539 340.722L195.862 371.259V403.627C195.862 404.116 196.259 404.512 196.749 404.512C197.239 404.512 197.636 404.116 197.636 403.627V332.396L223.066 309.014C223.426 308.682 223.449 308.121 223.117 307.761C222.786 307.399 222.225 307.377 221.864 307.708L197.636 329.987V234.771L213.41 214.616C213.71 214.231 213.643 213.674 213.258 213.371C212.871 213.069 212.314 213.138 212.013 213.523L197.636 231.893V149.336C197.636 148.847 197.239 148.451 196.749 148.451Z" fill="black"/>
<path d="M340.203 394.584L260.556 41.8568L192.956 394.584H340.203Z" fill="url(#paint2_linear_72_13853)"/>
<path d="M206.339 394.584L260.553 41.8568L192.952 394.584H206.339Z" fill="white" fill-opacity="0.04"/>
<path d="M320.122 394.584L260.553 41.8568L339.866 394.584H320.122Z" fill="black" fill-opacity="0.04"/>
<path fill-rule="evenodd" clip-rule="evenodd" d="M261.558 115.147C261.003 115.147 260.553 115.597 260.553 116.152V154.335L249.64 139.974C249.304 139.533 248.674 139.447 248.233 139.782C247.791 140.117 247.705 140.747 248.042 141.189L260.553 157.653V262.045L242.652 234.738C242.348 234.275 241.727 234.146 241.262 234.449C240.799 234.753 240.669 235.376 240.973 235.839L260.553 265.708V363.339L242.686 331.844C242.413 331.362 241.799 331.193 241.317 331.466C240.836 331.739 240.667 332.352 240.94 332.835L260.553 367.409V403.625C260.553 404.179 261.003 404.629 261.558 404.629C262.112 404.629 262.561 404.179 262.561 403.625V323.41L291.352 296.936C291.76 296.56 291.787 295.925 291.411 295.517C291.036 295.109 290.401 295.082 289.993 295.457L262.561 320.681V212.878L280.419 190.059C280.761 189.624 280.684 188.993 280.247 188.651C279.81 188.309 279.179 188.386 278.837 188.823L262.561 209.62V116.152C262.561 115.597 262.112 115.147 261.558 115.147Z" fill="black"/>
<path d="M430.646 393.908L341.699 6.10352e-05L266.206 393.908H430.646Z" fill="#251449"/>
<path d="M281.157 393.908L341.7 6.10352e-05L266.207 393.908H281.157Z" fill="white" fill-opacity="0.04"/>
<path d="M408.223 393.908L341.7 6.10352e-05L430.274 393.908H408.223Z" fill="black" fill-opacity="0.04"/>
<path fill-rule="evenodd" clip-rule="evenodd" d="M342.823 81.8455C342.204 81.8455 341.703 82.3485 341.703 82.9676V125.607L329.514 109.571C329.14 109.078 328.436 108.982 327.944 109.357C327.45 109.732 327.355 110.434 327.728 110.928L341.703 129.314V245.894L321.712 215.399C321.371 214.882 320.677 214.736 320.159 215.077C319.64 215.416 319.496 216.111 319.836 216.629L341.703 249.985V359.014L321.749 323.841C321.444 323.302 320.758 323.114 320.22 323.42C319.681 323.725 319.493 324.41 319.799 324.948L341.703 363.558V404.746C341.703 405.365 342.204 405.867 342.823 405.867C343.442 405.867 343.944 405.365 343.944 404.746V314.422L376.097 284.858C376.552 284.438 376.581 283.729 376.163 283.273C375.743 282.817 375.034 282.788 374.579 283.207L343.944 311.377V190.987L363.888 165.505C364.269 165.017 364.183 164.313 363.695 163.931C363.208 163.55 362.503 163.635 362.121 164.122L343.944 187.349V82.9676C343.944 82.3485 343.442 81.8455 342.823 81.8455Z" fill="black"/>
<path d="M386.547 396.756L456.896 85.21L516.603 396.756H386.547Z" fill="#201245"/>
<path opacity="0.4" d="M386.547 396.756L456.896 85.21L516.603 396.756H386.547Z" fill="white"/>
<path d="M504.779 396.754L456.895 85.2085L516.603 396.754H504.779Z" fill="white" fill-opacity="0.04"/>
<path d="M404.282 396.754L456.896 85.2085L386.841 396.754H404.282Z" fill="black" fill-opacity="0.04"/>
<path fill-rule="evenodd" clip-rule="evenodd" d="M456.004 149.943C456.494 149.943 456.891 150.341 456.891 150.83V184.554L466.53 171.871C466.827 171.481 467.383 171.405 467.774 171.702C468.163 171.998 468.24 172.555 467.943 172.944L456.891 187.486V279.69L472.703 255.572C472.971 255.162 473.52 255.048 473.931 255.316C474.34 255.584 474.455 256.134 474.185 256.544L456.891 282.925V369.157L472.673 341.339C472.914 340.913 473.455 340.764 473.882 341.005C474.308 341.247 474.457 341.788 474.216 342.215L456.891 372.752V405.12C456.891 405.609 456.494 406.007 456.004 406.007C455.514 406.007 455.118 405.609 455.118 405.12V333.89L429.689 310.507C429.328 310.175 429.305 309.614 429.636 309.254C429.967 308.893 430.528 308.87 430.889 309.201L455.118 331.481V236.264L439.345 216.109C439.043 215.723 439.111 215.166 439.497 214.864C439.882 214.563 440.439 214.63 440.742 215.016L455.118 233.386V150.83C455.118 150.341 455.514 149.943 456.004 149.943Z" fill="black"/>
<path d="M312.55 396.078L392.198 43.352L459.798 396.078H312.55Z" fill="#201245"/>
<path d="M446.414 396.078L392.199 43.352L459.799 396.078H446.414Z" fill="white" fill-opacity="0.04"/>
<path d="M332.631 396.078L392.199 43.352L312.885 396.078H332.631Z" fill="black" fill-opacity="0.04"/>
<path fill-rule="evenodd" clip-rule="evenodd" d="M391.196 116.644C391.75 116.644 392.201 117.093 392.201 117.647V155.83L403.113 141.471C403.449 141.028 404.078 140.943 404.521 141.278C404.962 141.614 405.047 142.244 404.712 142.685L392.201 159.149V263.541L410.101 236.235C410.406 235.771 411.027 235.641 411.491 235.945C411.955 236.25 412.085 236.872 411.78 237.335L392.201 267.204V364.835L410.068 333.339C410.341 332.857 410.953 332.688 411.437 332.962C411.918 333.235 412.087 333.849 411.814 334.331L392.201 368.904V405.122C392.201 405.676 391.75 406.125 391.196 406.125C390.642 406.125 390.191 405.676 390.191 405.122V324.905L361.401 298.431C360.993 298.057 360.967 297.42 361.341 297.012C361.718 296.604 362.353 296.578 362.76 296.953L390.191 322.178V214.375L372.334 191.556C371.992 191.119 372.07 190.489 372.505 190.147C372.942 189.805 373.573 189.881 373.915 190.318L390.191 211.117V117.647C390.191 117.093 390.642 116.644 391.196 116.644Z" fill="black"/>
<path d="M222.108 395.403L311.055 1.49438L386.548 395.403H222.108Z" fill="#251449"/>
<path d="M371.602 395.401L311.059 1.49286L386.552 395.401H371.602Z" fill="white" fill-opacity="0.04"/>
<path d="M244.535 395.401L311.058 1.49286L222.485 395.401H244.535Z" fill="black" fill-opacity="0.04"/>
<path fill-rule="evenodd" clip-rule="evenodd" d="M309.936 83.3392C310.555 83.3392 311.057 83.8409 311.057 84.46V127.101L323.245 111.063C323.62 110.571 324.322 110.474 324.816 110.849C325.308 111.224 325.405 111.928 325.03 112.42L311.057 130.806V247.388L331.048 216.893C331.387 216.374 332.083 216.23 332.6 216.569C333.118 216.909 333.263 217.604 332.924 218.122L311.057 251.477V360.506L331.011 325.335C331.316 324.796 332 324.607 332.538 324.912C333.077 325.219 333.266 325.902 332.961 326.441L311.057 365.051V406.239C311.057 406.858 310.555 407.359 309.936 407.359C309.317 407.359 308.814 406.858 308.814 406.239V315.916L276.663 286.351C276.207 285.931 276.177 285.222 276.597 284.766C277.015 284.311 277.724 284.281 278.181 284.7L308.814 312.869V192.479L288.872 166.997C288.49 166.51 288.576 165.805 289.063 165.423C289.55 165.042 290.255 165.128 290.637 165.615L308.814 188.841V84.46C308.814 83.8409 309.317 83.3392 309.936 83.3392Z" fill="black"/>
<defs>
<filter id="filter0_f_72_13853" x="0.425186" y="381.923" width="551.04" height="41.6254" filterUnits="userSpaceOnUse" color-interpolation-filters="sRGB">
<feFlood flood-opacity="0" result="BackgroundImageFix"/>
<feBlend mode="normal" in="SourceGraphic" in2="BackgroundImageFix" result="shape"/>
<feGaussianBlur stdDeviation="6.6072" result="effect1_foregroundBlur_72_13853"/>
</filter>
<linearGradient id="paint0_linear_72_13853" x1="20.3813" y1="277.946" x2="70.9189" y2="277.814" gradientUnits="userSpaceOnUse">
<stop stop-color="#5058CC"/>
<stop offset="1" stop-color="#251449"/>
</linearGradient>
<linearGradient id="paint1_linear_72_13853" x1="116.051" y1="241.189" x2="153.051" y2="246.475" gradientUnits="userSpaceOnUse">
<stop stop-color="#5058CC"/>
<stop offset="1" stop-color="#251449"/>
</linearGradient>
<linearGradient id="paint2_linear_72_13853" x1="188.069" y1="208.153" x2="284.593" y2="218.561" gradientUnits="userSpaceOnUse">
<stop stop-color="#5058CC"/>
<stop offset="1" stop-color="#251449"/>
</linearGradient>
</defs>
</svg>
