<svg width="558" height="428" viewBox="0 0 558 428" fill="none" xmlns="http://www.w3.org/2000/svg">
<path d="M428.409 416.471L484.903 166.285L532.851 416.471H428.409Z" fill="#251449"/>
<g filter="url(#filter0_f_72_13908)">
<ellipse cx="310.049" cy="419.702" rx="226.95" ry="6.21782" fill="black" fill-opacity="0.4"/>
</g>
<path d="M428.409 416.471L484.903 166.285L532.851 416.471H428.409Z" fill="url(#paint0_linear_72_13908)"/>
<path d="M523.36 416.467L484.906 166.281L532.855 416.467H523.36Z" fill="white" fill-opacity="0.04"/>
<path d="M442.655 416.467L484.907 166.281L428.651 416.467H442.655Z" fill="black" fill-opacity="0.04"/>
<path fill-rule="evenodd" clip-rule="evenodd" d="M484.194 218.266C484.587 218.266 484.906 218.585 484.906 218.978V246.062L492.647 235.875C492.885 235.563 493.332 235.501 493.645 235.739C493.958 235.977 494.019 236.424 493.781 236.737L484.906 248.414V322.459L497.603 303.092C497.819 302.763 498.261 302.67 498.589 302.885C498.918 303.103 499.01 303.544 498.794 303.873L484.906 325.058V394.306L497.58 371.968C497.774 371.626 498.208 371.506 498.55 371.699C498.892 371.893 499.013 372.328 498.818 372.67L484.906 397.192V423.187C484.906 423.58 484.587 423.899 484.194 423.899C483.801 423.899 483.482 423.58 483.482 423.187V365.984L463.061 347.207C462.772 346.94 462.753 346.491 463.019 346.201C463.285 345.911 463.736 345.893 464.025 346.16L483.482 364.05V287.587L470.816 271.402C470.573 271.092 470.628 270.644 470.937 270.402C471.247 270.16 471.695 270.214 471.937 270.524L483.482 285.276V218.978C483.482 218.585 483.801 218.266 484.194 218.266Z" fill="black"/>
<path d="M368.981 415.932L432.941 132.674L487.228 415.932H368.981Z" fill="#251449"/>
<path d="M476.48 415.929L432.943 132.672L487.23 415.929H476.48Z" fill="white" fill-opacity="0.04"/>
<path d="M385.107 415.929L432.943 132.672L369.252 415.929H385.107Z" fill="black" fill-opacity="0.04"/>
<path fill-rule="evenodd" clip-rule="evenodd" d="M432.138 191.53C432.584 191.53 432.944 191.89 432.944 192.335V222.999L441.709 211.466C441.978 211.112 442.484 211.042 442.838 211.311C443.193 211.582 443.262 212.088 442.993 212.442L432.944 225.663V309.496L447.32 287.566C447.564 287.195 448.064 287.09 448.436 287.334C448.809 287.578 448.913 288.079 448.668 288.45L432.944 312.436V390.84L447.293 365.547C447.513 365.16 448.005 365.023 448.392 365.243C448.779 365.464 448.915 365.955 448.695 366.342L432.944 394.107V423.19C432.944 423.635 432.584 423.998 432.138 423.998C431.693 423.998 431.332 423.635 431.332 423.19V358.775L408.212 337.513C407.884 337.213 407.862 336.702 408.164 336.374C408.465 336.047 408.975 336.025 409.303 336.327L431.332 356.584V270.012L416.991 251.687C416.717 251.337 416.778 250.83 417.129 250.556C417.48 250.281 417.987 250.343 418.261 250.693L431.332 267.395V192.335C431.332 191.89 431.693 191.53 432.138 191.53Z" fill="black"/>
<path d="M296.353 415.387L367.781 99.0579L428.406 415.387H296.353Z" fill="#251449"/>
<path d="M416.398 415.387L367.779 99.0579L428.403 415.387H416.398Z" fill="white" fill-opacity="0.04"/>
<path d="M314.358 415.387L367.779 99.0579L296.649 415.387H314.358Z" fill="black" fill-opacity="0.04"/>
<path fill-rule="evenodd" clip-rule="evenodd" d="M366.883 164.784C367.38 164.784 367.783 165.186 367.783 165.683V199.926L377.57 187.048C377.871 186.653 378.436 186.576 378.831 186.876C379.227 187.176 379.304 187.742 379.003 188.137L367.783 202.901V296.523L383.836 272.034C384.109 271.617 384.667 271.502 385.083 271.775C385.499 272.046 385.615 272.605 385.342 273.021L367.783 299.807V387.364L383.806 359.119C384.051 358.686 384.601 358.535 385.033 358.779C385.466 359.026 385.618 359.574 385.372 360.007L367.783 391.012V424.089C367.783 424.586 367.38 424.99 366.883 424.99C366.384 424.99 365.982 424.586 365.982 424.089V351.555L340.161 327.811C339.795 327.476 339.772 326.907 340.108 326.54C340.445 326.174 341.014 326.151 341.381 326.486L365.982 349.108V252.429L349.967 231.966C349.661 231.573 349.729 231.008 350.12 230.701C350.512 230.395 351.079 230.463 351.385 230.857L365.982 249.507V165.683C365.982 165.186 366.384 164.784 366.883 164.784Z" fill="black"/>
<path d="M331.764 417.67L275.27 167.483L227.32 417.67H331.764Z" fill="#251449"/>
<path d="M331.764 417.67L275.27 167.483L227.32 417.67H331.764Z" fill="#251449"/>
<path d="M236.809 417.67L275.263 167.483L227.316 417.67H236.809Z" fill="white" fill-opacity="0.04"/>
<path d="M317.515 417.67L275.264 167.483L331.52 417.67H317.515Z" fill="black" fill-opacity="0.04"/>
<path fill-rule="evenodd" clip-rule="evenodd" d="M275.986 219.471C275.593 219.471 275.274 219.79 275.274 220.183V247.265L267.533 237.08C267.294 236.765 266.849 236.705 266.535 236.943C266.222 237.182 266.162 237.629 266.4 237.941L275.274 249.619V323.664L262.576 304.295C262.361 303.966 261.92 303.875 261.59 304.09C261.261 304.305 261.17 304.747 261.385 305.076L275.274 326.263V395.511L262.601 373.171C262.406 372.829 261.971 372.709 261.63 372.904C261.288 373.098 261.168 373.533 261.363 373.875L275.274 398.397V424.389C275.274 424.783 275.593 425.102 275.986 425.102C276.38 425.102 276.698 424.783 276.698 424.389V367.189L297.119 348.41C297.409 348.145 297.428 347.694 297.161 347.404C296.896 347.116 296.444 347.097 296.154 347.362L276.698 365.253V288.79L289.365 272.605C289.608 272.296 289.552 271.847 289.243 271.605C288.933 271.363 288.485 271.418 288.243 271.727L276.698 286.479V220.183C276.698 219.79 276.38 219.471 275.986 219.471Z" fill="black"/>
<path d="M391.186 417.133L327.225 133.875L272.938 417.133H391.186Z" fill="#251449"/>
<path d="M283.686 417.133L327.223 133.875L272.936 417.133H283.686Z" fill="white" fill-opacity="0.04"/>
<path d="M375.06 417.133L327.223 133.875L390.916 417.133H375.06Z" fill="black" fill-opacity="0.04"/>
<path fill-rule="evenodd" clip-rule="evenodd" d="M328.029 192.733C327.583 192.733 327.221 193.094 327.221 193.539V224.202L318.457 212.67C318.188 212.316 317.683 212.245 317.329 212.514C316.972 212.786 316.904 213.291 317.173 213.645L327.221 226.867V310.699L312.846 288.771C312.602 288.398 312.103 288.293 311.73 288.537C311.357 288.781 311.254 289.283 311.498 289.655L327.221 313.639V392.043L312.873 366.75C312.653 366.363 312.161 366.227 311.774 366.446C311.386 366.668 311.252 367.158 311.471 367.545L327.221 395.31V424.394C327.221 424.839 327.583 425.201 328.029 425.201C328.474 425.201 328.834 424.839 328.834 424.394V359.978L351.955 338.716C352.282 338.416 352.303 337.905 352.002 337.578C351.7 337.251 351.191 337.23 350.864 337.53L328.834 357.787V271.216L343.174 252.89C343.449 252.54 343.387 252.033 343.037 251.76C342.685 251.484 342.18 251.547 341.905 251.896L328.834 268.599V193.539C328.834 193.094 328.474 192.733 328.029 192.733Z" fill="black"/>
<path d="M463.823 416.59L392.394 100.261L331.77 416.59H463.823Z" fill="url(#paint1_linear_72_13908)"/>
<path d="M343.769 416.593L392.389 100.264L331.764 416.593H343.769Z" fill="white" fill-opacity="0.04"/>
<path d="M445.81 416.593L392.388 100.264L463.517 416.593H445.81Z" fill="black" fill-opacity="0.04"/>
<path fill-rule="evenodd" clip-rule="evenodd" d="M393.293 165.992C392.796 165.992 392.393 166.394 392.393 166.89V201.134L382.605 188.255C382.305 187.86 381.74 187.783 381.344 188.084C380.948 188.384 380.871 188.949 381.172 189.344L392.393 204.109V297.73L376.339 273.241C376.066 272.825 375.508 272.709 375.093 272.982C374.677 273.253 374.56 273.812 374.833 274.229L392.393 301.014V388.571L376.369 360.326C376.124 359.893 375.574 359.742 375.142 359.987C374.709 360.233 374.558 360.782 374.803 361.214L392.393 392.219V425.297C392.393 425.794 392.796 426.197 393.293 426.197C393.791 426.197 394.194 425.794 394.194 425.297V352.763L420.013 329.019C420.379 328.683 420.403 328.114 420.067 327.748C419.73 327.381 419.16 327.358 418.794 327.694L394.194 350.315V253.636L410.209 233.174C410.515 232.782 410.446 232.215 410.055 231.909C409.663 231.602 409.097 231.671 408.791 232.064L394.194 250.715V166.89C394.194 166.394 393.791 165.992 393.293 165.992Z" fill="black"/>
<path d="M262.847 414.916L336.694 87.8805L399.371 414.916H262.847Z" fill="#251449"/>
<path d="M262.847 414.916L336.694 87.8805L399.371 414.916H262.847Z" fill="#251449"/>
<path d="M386.968 414.912L336.702 87.8767L399.38 414.912H386.968Z" fill="white" fill-opacity="0.04"/>
<path d="M281.473 414.912L336.702 87.8767L263.166 414.912H281.473Z" fill="black" fill-opacity="0.04"/>
<path fill-rule="evenodd" clip-rule="evenodd" d="M335.762 155.827C336.275 155.827 336.694 156.243 336.694 156.759V192.159L346.812 178.844C347.123 178.436 347.706 178.356 348.116 178.666C348.526 178.979 348.605 179.563 348.294 179.971L336.694 195.236V292.025L353.29 266.708C353.572 266.277 354.15 266.157 354.578 266.439C355.009 266.72 355.129 267.298 354.847 267.729L336.694 295.421V385.941L353.259 356.739C353.512 356.292 354.081 356.137 354.529 356.389C354.976 356.644 355.133 357.211 354.878 357.658L336.694 389.713V423.691C336.694 424.205 336.275 424.623 335.762 424.623C335.249 424.623 334.832 424.205 334.832 423.691V348.919L308.138 324.374C307.759 324.026 307.734 323.438 308.082 323.059C308.43 322.68 309.02 322.655 309.397 323.003L334.832 346.391V246.44L318.275 225.282C317.956 224.879 318.029 224.293 318.432 223.976C318.838 223.659 319.424 223.732 319.741 224.135L334.832 243.419V156.759C334.832 156.243 335.249 155.827 335.762 155.827Z" fill="black"/>
<path d="M185.176 414.2L268.785 43.9361L339.745 414.2H185.176Z" fill="#251449"/>
<path d="M325.693 414.202L268.785 43.9361L339.745 414.202H325.693Z" fill="white" fill-opacity="0.04"/>
<path d="M206.253 414.202L268.785 43.9361L185.528 414.202H206.253Z" fill="black" fill-opacity="0.04"/>
<path fill-rule="evenodd" clip-rule="evenodd" d="M267.735 120.874C268.317 120.874 268.789 121.346 268.789 121.928V162.01L280.245 146.935C280.597 146.471 281.257 146.382 281.721 146.734C282.185 147.086 282.276 147.747 281.924 148.21L268.789 165.492V275.075L287.58 246.412C287.899 245.925 288.551 245.789 289.038 246.107C289.527 246.426 289.661 247.081 289.342 247.567L268.789 278.92V381.407L287.545 348.344C287.831 347.839 288.475 347.661 288.982 347.949C289.487 348.236 289.665 348.878 289.378 349.385L268.789 385.678V423.696C268.789 424.278 268.317 424.75 267.735 424.75C267.153 424.75 266.681 424.278 266.681 423.696V339.491L236.459 311.701C236.03 311.308 236.001 310.641 236.397 310.213C236.79 309.784 237.457 309.755 237.886 310.148L266.681 336.627V223.465L247.935 199.512C247.575 199.052 247.656 198.39 248.116 198.032C248.573 197.673 249.236 197.754 249.594 198.212L266.681 220.045V121.928C266.681 121.346 267.153 120.874 267.735 120.874Z" fill="black"/>
<path d="M90.2359 413.495L183.605 -6.86646e-05L262.851 413.495H90.2359Z" fill="#2D2F57"/>
<path d="M247.161 413.495L183.609 -6.86646e-05L262.855 413.495H247.161Z" fill="white" fill-opacity="0.04"/>
<path d="M113.777 413.495L183.609 -6.86646e-05L90.6315 413.495H113.777Z" fill="black" fill-opacity="0.04"/>
<path fill-rule="evenodd" clip-rule="evenodd" d="M182.433 85.9168C183.083 85.9168 183.609 86.4427 183.609 87.0928V131.854L196.402 115.019C196.795 114.501 197.535 114.402 198.052 114.795C198.57 115.189 198.669 115.926 198.278 116.443L183.609 135.744V258.122L204.595 226.111C204.951 225.566 205.68 225.415 206.224 225.771C206.767 226.128 206.92 226.856 206.562 227.401L183.609 262.414V376.866L204.555 339.944C204.876 339.379 205.593 339.18 206.16 339.501C206.725 339.822 206.922 340.54 206.601 341.106L183.609 381.637V424.872C183.609 425.522 183.083 426.048 182.433 426.048C181.783 426.048 181.255 425.522 181.255 424.872V330.058L147.504 299.022C147.026 298.583 146.995 297.837 147.434 297.359C147.875 296.881 148.62 296.85 149.099 297.289L181.255 326.859V200.485L160.32 173.735C159.921 173.223 160.01 172.482 160.521 172.083C161.035 171.681 161.774 171.772 162.173 172.283L181.255 196.665V87.0928C181.255 86.4427 181.783 85.9168 182.433 85.9168Z" fill="black"/>
<path d="M136.523 416.483L62.6765 89.4454L-4.57764e-05 416.483H136.523Z" fill="#251B19"/>
<path d="M136.523 416.481L62.6765 89.4454L-4.57764e-05 416.481H136.523Z" fill="url(#paint2_linear_72_13908)"/>
<path d="M12.4141 416.481L62.6783 89.4454L0.0017662 416.481H12.4141Z" fill="white" fill-opacity="0.04"/>
<path d="M117.909 416.481L62.6781 89.4454L136.216 416.481H117.909Z" fill="black" fill-opacity="0.04"/>
<path fill-rule="evenodd" clip-rule="evenodd" d="M63.6117 157.394C63.0982 157.394 62.6821 157.812 62.6821 158.325V193.726L52.5617 180.413C52.2512 180.003 51.6673 179.924 51.2574 180.235C50.8495 180.545 50.7687 181.129 51.0814 181.539L62.6821 196.802V293.592L46.0833 268.274C45.8017 267.844 45.2262 267.723 44.7955 268.007C44.3649 268.289 44.2448 268.864 44.5263 269.295L62.6821 296.987V387.509L46.1144 358.308C45.8618 357.86 45.2945 357.703 44.8473 357.956C44.4 358.21 44.2427 358.778 44.4953 359.225L62.6821 391.282V425.258C62.6821 425.773 63.0982 426.189 63.6117 426.189C64.1272 426.189 64.5434 425.773 64.5434 425.258V350.488L91.2377 325.94C91.6145 325.592 91.6393 325.004 91.2915 324.626C90.9437 324.247 90.3557 324.222 89.9768 324.572L64.5434 347.957V248.007L81.1008 226.851C81.4176 226.445 81.3451 225.861 80.9414 225.544C80.5356 225.225 79.9517 225.298 79.6349 225.702L64.5434 244.986V158.325C64.5434 157.812 64.1272 157.394 63.6117 157.394Z" fill="black"/>
<path d="M214.204 415.771L130.595 45.507L59.6343 415.771H214.204Z" fill="url(#paint3_linear_72_13908)"/>
<path d="M73.6829 415.771L130.593 45.507L59.6308 415.771H73.6829Z" fill="white" fill-opacity="0.04"/>
<path d="M193.123 415.771L130.593 45.507L213.85 415.771H193.123Z" fill="black" fill-opacity="0.04"/>
<path fill-rule="evenodd" clip-rule="evenodd" d="M131.653 122.445C131.072 122.445 130.599 122.918 130.599 123.499V163.579L119.144 148.506C118.792 148.042 118.129 147.953 117.665 148.305C117.204 148.657 117.113 149.318 117.465 149.782L130.599 167.064V276.646L111.808 247.983C111.489 247.496 110.835 247.36 110.348 247.679C109.862 247.997 109.727 248.652 110.046 249.138L130.599 280.491V382.976L111.843 349.915C111.555 349.41 110.914 349.232 110.406 349.52C109.901 349.805 109.723 350.449 110.011 350.957L130.599 387.247V425.267C130.599 425.849 131.072 426.321 131.653 426.321C132.235 426.321 132.707 425.849 132.707 425.267V341.062L162.929 313.272C163.358 312.877 163.385 312.21 162.992 311.782C162.598 311.353 161.932 311.326 161.503 311.72L132.707 338.198V225.036L151.453 201.083C151.811 200.623 151.73 199.961 151.273 199.603C150.813 199.245 150.153 199.325 149.792 199.783L132.707 221.616V123.499C132.707 122.918 132.235 122.445 131.653 122.445Z" fill="black"/>
<path d="M309.142 415.062L215.773 1.56886L136.527 415.062H309.142Z" fill="url(#paint4_linear_72_13908)"/>
<path d="M152.215 415.059L215.769 1.56617L136.523 415.059H152.215Z" fill="white" fill-opacity="0.04"/>
<path d="M285.601 415.059L215.769 1.56617L308.747 415.059H285.601Z" fill="black" fill-opacity="0.04"/>
<path fill-rule="evenodd" clip-rule="evenodd" d="M216.953 87.4844C216.303 87.4844 215.775 88.0104 215.775 88.6605V133.421L202.982 116.587C202.589 116.069 201.85 115.97 201.332 116.363C200.814 116.756 200.715 117.494 201.108 118.011L215.775 137.312V259.688L194.791 227.676C194.433 227.134 193.704 226.983 193.162 227.339C192.617 227.695 192.466 228.424 192.822 228.968L215.775 263.982V378.432L194.831 341.512C194.51 340.947 193.791 340.748 193.226 341.069C192.661 341.39 192.462 342.108 192.783 342.673L215.775 383.202V426.439C215.775 427.09 216.303 427.615 216.953 427.615C217.601 427.615 218.129 427.09 218.129 426.439V331.625L251.88 300.589C252.358 300.148 252.389 299.405 251.95 298.927C251.509 298.449 250.766 298.417 250.288 298.856L218.129 328.427V202.051L239.064 175.302C239.465 174.789 239.374 174.05 238.863 173.65C238.351 173.249 237.61 173.34 237.211 173.851L218.129 198.233V88.6605C218.129 88.0104 217.601 87.4844 216.953 87.4844Z" fill="black"/>
<defs>
<filter id="filter0_f_72_13908" x="62.373" y="392.758" width="495.353" height="53.8878" filterUnits="userSpaceOnUse" color-interpolation-filters="sRGB">
<feFlood flood-opacity="0" result="BackgroundImageFix"/>
<feBlend mode="normal" in="SourceGraphic" in2="BackgroundImageFix" result="shape"/>
<feGaussianBlur stdDeviation="10.363" result="effect1_foregroundBlur_72_13908"/>
</filter>
<linearGradient id="paint0_linear_72_13908" x1="520.904" y1="291.758" x2="467.853" y2="291.619" gradientUnits="userSpaceOnUse">
<stop stop-color="#5058CC"/>
<stop offset="1" stop-color="#251449"/>
</linearGradient>
<linearGradient id="paint1_linear_72_13908" x1="420.482" y1="253.182" x2="381.642" y2="258.73" gradientUnits="userSpaceOnUse">
<stop stop-color="#5058CC"/>
<stop offset="1" stop-color="#251449"/>
</linearGradient>
<linearGradient id="paint2_linear_72_13908" x1="190.9" y1="263.225" x2="67.957" y2="285.355" gradientUnits="userSpaceOnUse">
<stop stop-color="#5058CC"/>
<stop offset="1" stop-color="#251449"/>
</linearGradient>
<linearGradient id="paint3_linear_72_13908" x1="163.472" y1="224.502" x2="118.01" y2="230.996" gradientUnits="userSpaceOnUse">
<stop stop-color="#5058CC"/>
<stop offset="1" stop-color="#251449"/>
</linearGradient>
<linearGradient id="paint4_linear_72_13908" x1="377.895" y1="221.29" x2="222.449" y2="249.27" gradientUnits="userSpaceOnUse">
<stop stop-color="#5058CC"/>
<stop offset="1" stop-color="#251449"/>
</linearGradient>
</defs>
</svg>
